<svg width="193" height="218" xmlns="http://www.w3.org/2000/svg" xmlns:xlink="http://www.w3.org/1999/xlink" xml:space="preserve" overflow="hidden"><defs><clipPath id="clip0"><rect x="56" y="266" width="193" height="218"/></clipPath><clipPath id="clip1"><rect x="56" y="266" width="193" height="218"/></clipPath><clipPath id="clip2"><rect x="56" y="267" width="193" height="216"/></clipPath><clipPath id="clip3"><rect x="56" y="267" width="193" height="216"/></clipPath></defs><g clip-path="url(#clip0)" transform="translate(-56 -266)"><g clip-path="url(#clip1)"><g clip-path="url(#clip2)"><g clip-path="url(#clip3)"><path d="M114.369 16.409C117.76 14.5065 121.934 14.5065 125.32 16.409 142.073 25.812 192.489 54.1159 209.248 63.5188 212.638 65.4164 214.726 68.9319 214.726 72.7371 214.726 91.543 214.726 148.146 214.726 166.952 214.726 170.757 212.638 174.272 209.248 176.175 192.494 185.578 142.078 213.882 125.32 223.285 121.929 225.187 117.755 225.187 114.369 223.285 97.6153 213.882 47.1997 185.578 30.4411 176.175 27.0554 174.272 24.9681 170.762 24.9681 166.957 24.9681 148.151 24.9681 91.548 24.9681 72.7421 24.9681 68.9369 27.0554 65.4214 30.4461 63.5188 47.1947 54.1159 97.6203 25.812 114.369 16.409Z" fill="#280068" fill-rule="evenodd" fill-opacity="1" transform="matrix(1.00075 0 0 1 34.2171 255.43)"/><path d="M26.4862 171.8C25.1579 170.023 24.9681 168.335 24.9681 166.063 24.9681 147.367 24.9681 91.0886 24.9681 72.3875 24.9681 68.6023 27.0504 65.1068 30.4311 63.2192 47.1248 53.8712 97.3706 25.7321 114.064 16.3791 117.445 14.4865 122.024 14.5264 125.405 16.419 142.098 25.7671 192.174 53.6664 208.868 63.0145 210.216 63.7735 211.245 64.6873 212.164 65.8908L26.4862 171.8Z" fill="#A179DC" fill-rule="evenodd" fill-opacity="1" transform="matrix(1.00075 0 0 1 34.2171 255.43)"/><path d="M119.847 49.9362C158.433 49.9362 189.758 81.2612 189.758 119.847 189.758 158.433 158.433 189.758 119.847 189.758 81.2612 189.758 49.9362 158.433 49.9362 119.847 49.9362 81.2612 81.2612 49.9362 119.847 49.9362ZM119.847 84.8915C139.137 84.8915 154.802 100.552 154.802 119.847 154.802 139.137 139.137 154.802 119.847 154.802 100.557 154.802 84.8915 139.137 84.8915 119.847 84.8915 100.552 100.552 84.8915 119.847 84.8915Z" fill="#FFFFFF" fill-rule="evenodd" fill-opacity="1" transform="matrix(1.00075 0 0 1 34.2171 255.43)"/><path d="M212.154 65.9407C214.731 68.3527 214.681 71.988 214.681 74.8494 214.681 93.8001 214.521 147.701 214.726 166.652 214.746 168.63 214.091 170.712 213.113 172.28L117.814 119.847 212.154 65.9407Z" fill="#390091" fill-rule="evenodd" fill-opacity="1" transform="matrix(1.00075 0 0 1 34.2171 255.43)"/><path d="M169.783 99.8724 174.777 99.8724 174.777 139.821 169.783 139.821ZM184.764 99.8724 189.758 99.8724 189.758 139.821 184.764 139.821Z" fill="#FFFFFF" fill-rule="evenodd" fill-opacity="1" transform="matrix(1.00075 0 0 1 34.2171 255.43)"/><path d="M159.796 124.84 199.745 124.84 199.745 129.834 159.796 129.834ZM159.796 109.86 199.745 109.86 199.745 114.853 159.796 114.853Z" fill="#FFFFFF" fill-rule="evenodd" fill-opacity="1" transform="matrix(1.00075 0 0 1 34.2171 255.43)"/></g></g></g></g></svg>