<svg width="683" height="234" xmlns="http://www.w3.org/2000/svg" xmlns:xlink="http://www.w3.org/1999/xlink" xml:space="preserve" overflow="hidden"><g transform="translate(-213 -258)"><g><g><g><path d="M459.181 229.193C447.379 229.193 438.573 235.002 438.573 248.945 438.573 259.462 444.382 266.801 458.569 266.801 470.616 266.801 478.749 259.707 478.749 248.516 478.749 235.858 471.411 229.193 459.181 229.193L459.181 229.193ZM435.515 327.89C432.702 331.315 429.951 334.984 429.951 339.264 429.951 347.825 440.897 350.455 455.94 350.455 468.414 350.455 485.353 349.599 485.353 337.98 485.353 331.07 477.159 330.642 466.886 330.03L435.515 327.89ZM499.173 229.865C503.026 234.819 507.123 241.668 507.123 251.574 507.123 275.423 488.411 289.365 461.382 289.365 454.472 289.365 448.296 288.509 444.382 287.408L437.228 298.844 458.263 300.128C495.443 302.513 517.335 303.552 517.335 332.171 517.335 356.876 495.626 370.879 458.263 370.879 419.372 370.879 404.512 360.973 404.512 344.034 404.512 334.372 408.792 329.235 416.314 322.081 409.221 319.084 406.836 313.703 406.836 307.894 406.836 303.185 409.221 298.844 413.073 294.808 416.926 290.71 421.206 286.613 426.404 281.905 415.886 276.768 407.936 265.578 407.936 249.678 407.936 224.973 424.264 207.974 457.163 207.974 466.396 207.974 472.022 208.83 476.914 210.114L518.803 210.114 518.803 228.398 499.173 229.865ZM556.716 190.79C544.486 190.79 537.392 183.697 537.392 171.467 537.392 159.236 544.486 152.571 556.716 152.571 569.191 152.571 576.284 159.236 576.284 171.467 576.284 183.697 569.191 190.79 556.716 190.79ZM529.015 319.94 529.015 302.941 539.961 301.473C542.957 301.045 543.385 300.372 543.385 297.192L543.385 234.024C543.385 231.639 542.713 230.171 540.572 229.499L528.954 225.402 531.339 207.974 575.856 207.974 575.856 297.192C575.856 300.617 576.04 301.045 579.281 301.473L590.227 303.002 590.227 319.94 529.015 319.94ZM675.226 311.624C665.992 316.149 652.417 320.246 640.187 320.246 614.626 320.246 604.964 309.912 604.964 285.635L604.964 229.315C604.964 228.031 604.964 227.175 603.252 227.175L588.209 227.175 588.209 208.035C607.104 205.894 614.626 196.416 617.011 172.995L637.435 172.995 637.435 203.51C637.435 205.038 637.435 205.65 639.147 205.65L669.417 205.65 669.417 227.114 637.374 227.114 637.374 278.48C637.374 291.139 640.37 296.092 651.989 296.092 658.043 296.092 664.219 294.563 669.417 292.667L675.226 311.624" fill="#FFFFFF" fill-rule="nonzero" fill-opacity="1" transform="matrix(1 0 0 1.00161 80.3107 108.751)"/><path d="M356.814 255.243 258.545 156.974C252.858 151.287 243.686 151.287 238.06 156.974 238.06 156.974 238.06 156.974 238.06 156.974L217.635 177.398 243.502 203.265C249.739 201.125 256.588 202.776 261.236 207.362 265.883 212.01 267.473 218.92 265.333 225.157L290.282 250.106C296.336 248.027 303.307 249.373 308.077 254.203 314.804 260.93 314.804 271.876 308.077 278.603 308.077 278.603 308.077 278.603 308.077 278.603 301.351 285.329 290.405 285.329 283.678 278.603 278.725 273.649 277.257 266.25 279.948 259.829L256.711 236.592 256.711 297.804C258.423 298.66 259.952 299.761 261.297 301.045 268.024 307.771 268.024 318.717 261.297 325.444 261.297 325.444 261.297 325.444 261.297 325.444 254.57 332.171 243.624 332.171 236.898 325.444 230.171 318.717 230.171 307.771 236.898 301.045 238.488 299.455 240.445 298.171 242.524 297.254L242.524 235.491C240.383 234.635 238.488 233.351 236.898 231.7 231.822 226.625 230.538 219.103 233.168 212.866L207.668 187.366 140.219 254.754C134.532 260.441 134.532 269.613 140.219 275.239 140.219 275.239 140.219 275.239 140.219 275.239L238.488 373.509C244.175 379.196 253.347 379.196 258.973 373.509L356.753 275.729C362.501 270.042 362.501 260.869 356.814 255.243" fill="#DE4C36" fill-rule="nonzero" fill-opacity="1" transform="matrix(1 0 0 1.00161 80.3107 108.751)"/></g></g></g></g></svg>