<svg width="720" height="209" xmlns="http://www.w3.org/2000/svg" xmlns:xlink="http://www.w3.org/1999/xlink" xml:space="preserve" overflow="hidden"><defs><clipPath id="clip0"><rect x="280" y="253" width="720" height="209"/></clipPath><clipPath id="clip1"><rect x="280" y="253" width="720" height="209"/></clipPath><clipPath id="clip2"><rect x="280" y="254" width="720" height="208"/></clipPath></defs><g clip-path="url(#clip0)" transform="translate(-280 -253)"><g clip-path="url(#clip1)"><g clip-path="url(#clip2)"><path d="M668.593 84.7997C667.948 84.9288 667.3 86.3523 667.3 87.1279 667.171 92.306 667.042 106.025 667.042 115.344 667.042 115.603 667.429 116.121 667.817 116.121 669.758 116.25 674.418 116.379 678.43 116.379 683.995 116.379 687.231 115.603 689.044 114.827 693.702 112.496 695.903 107.449 695.903 101.882 695.903 89.3298 687.102 84.5403 674.029 84.5403 673.123 84.4112 670.537 84.4112 668.593 84.7997ZM701.987 142.653C701.987 129.84 692.538 122.721 675.454 122.721 674.677 122.721 669.241 122.592 667.946 122.85 667.558 122.98 667.042 123.24 667.042 123.628 667.042 132.816 666.911 147.443 667.3 153.137 667.558 155.595 669.371 159.09 671.572 160.126 673.9 161.42 679.207 161.678 682.831 161.678 693.056 161.678 701.987 155.984 701.987 142.653ZM642.192 77.682C643.485 77.682 647.367 78.0691 657.334 78.0691 666.782 78.0691 674.289 77.8111 683.478 77.8111 694.737 77.8111 710.268 81.8222 710.268 98.6481 710.268 106.931 704.444 113.533 696.809 116.768 696.422 116.897 696.422 117.156 696.809 117.285 707.679 120.004 717.259 126.733 717.259 139.416 717.259 151.842 709.493 159.737 698.232 164.656 691.372 167.632 682.831 168.667 674.16 168.667 667.558 168.667 649.828 167.891 639.992 168.151 638.957 167.761 640.898 163.102 641.802 162.326 644.133 162.196 645.944 162.067 648.404 161.29 651.899 160.385 652.286 159.349 652.804 154.043 653.063 149.513 653.063 133.463 653.063 122.074 653.063 106.414 653.193 95.801 653.063 90.6243 652.934 86.6132 651.51 85.3173 648.663 84.5403 646.461 84.1532 642.839 83.6343 639.861 83.2472 639.213 82.5992 641.414 78.1981 642.192 77.682ZM567.512 158.184C570.62 160.642 576.702 161.677 582.138 161.677 589.127 161.677 596.116 160.385 602.846 154.3 609.706 148.089 614.494 138.512 614.494 123.24 614.494 108.613 608.929 96.7056 597.539 89.7183 591.068 85.7044 582.785 84.0242 573.207 84.0242 570.36 84.0242 567.642 84.1532 565.96 84.9288 565.57 85.1882 564.666 86.3523 564.666 86.9989 564.406 89.5879 564.406 109.519 564.406 121.168 564.406 133.204 564.406 150.03 564.666 151.971 564.666 153.914 565.57 156.89 567.513 158.184ZM538.132 77.6806C540.592 77.6806 550.039 78.0691 554.569 78.0691 562.725 78.0691 568.548 77.682 583.949 77.682 596.891 77.682 607.763 81.1757 615.529 87.7759 624.977 95.93 629.896 107.191 629.896 120.909 629.896 140.453 620.965 151.713 612.034 158.184 603.106 164.785 591.457 168.667 574.89 168.667 566.089 168.667 550.947 168.409 538.391 168.278L538.262 168.278C537.616 167.114 539.297 162.584 540.332 162.455 543.698 162.067 544.604 161.936 546.287 161.291 549.004 160.255 549.523 158.831 549.912 154.043 550.299 145.112 550.17 134.37 550.17 122.203 550.17 113.533 550.299 96.5766 550.039 91.1405 549.652 86.6118 547.711 85.4463 543.827 84.6693 541.886 84.2822 539.297 83.7633 535.675 83.3762 535.156 82.4688 537.485 78.4576 538.132 77.682Z" fill="#FFFFFF" fill-rule="evenodd" fill-opacity="1" transform="matrix(1.00267 0 0 1 280 257.542)"/><path d="M381.528 163.231C378.292 162.842 375.963 162.326 373.116 161.032 372.727 160.772 372.079 159.479 372.079 158.96 371.821 154.43 371.821 141.488 371.821 132.817 371.821 125.827 370.657 119.745 367.68 115.474 364.185 110.554 359.138 107.708 352.666 107.708 346.972 107.708 339.335 111.59 332.993 117.027 332.864 117.156 331.829 118.063 331.958 116.638 331.958 115.215 332.217 112.367 332.346 110.425 332.477 108.613 331.44 107.708 331.44 107.708 327.299 109.778 315.651 112.496 311.379 112.884 308.274 113.533 307.497 116.509 310.734 117.544L310.863 117.544C314.355 118.579 316.686 119.745 318.497 120.91 319.791 121.945 319.662 123.369 319.662 124.534 319.791 134.239 319.791 149.124 319.404 157.278 319.275 160.514 318.369 161.678 316.038 162.196L316.297 162.067C314.485 162.455 313.062 162.842 310.861 163.102 310.084 163.879 310.084 168.02 310.861 168.926 312.285 168.926 319.791 168.538 326.006 168.538 334.547 168.538 338.948 168.926 341.147 168.926 342.053 167.891 342.313 164.008 341.795 163.102 339.335 162.973 337.523 162.715 335.841 162.196 333.512 161.677 332.864 160.514 332.733 157.796 332.477 150.935 332.477 136.44 332.477 126.604 332.477 123.886 333.252 122.592 334.028 121.815 337.005 119.227 341.795 117.415 346.066 117.415 350.207 117.415 352.924 118.71 354.995 120.393 357.842 122.721 358.749 126.087 359.137 128.545 359.784 134.11 359.525 145.112 359.525 154.689 359.525 159.866 359.137 161.161 357.197 161.807 356.29 162.196 353.96 162.715 351.242 162.971 350.336 163.879 350.596 167.891 351.242 168.797 354.995 168.797 359.396 168.409 365.868 168.409 373.891 168.409 379.069 168.797 381.141 168.797 381.786 168.02 382.046 164.267 381.528 163.231ZM417.379 113.792C410.521 113.792 406.249 119.098 406.249 127.38 406.249 135.793 410.002 145.5 420.614 145.5 422.426 145.5 425.793 144.723 427.344 142.911 429.804 140.583 431.487 135.923 431.487 131.004 431.487 120.262 426.18 113.791 417.379 113.791ZM416.473 170.996C413.885 170.996 412.072 171.773 410.908 172.421 405.472 175.914 403.013 179.28 403.013 183.294 403.013 187.045 404.437 190.021 407.543 192.61 411.296 195.846 416.473 197.4 423.073 197.4 436.275 197.4 442.099 190.281 442.099 183.294 442.099 178.374 439.639 175.138 434.593 173.327 430.969 171.773 424.369 170.996 416.473 170.996ZM417.379 204.648C409.484 204.648 403.789 202.965 398.871 199.212 394.082 195.588 392.012 190.152 392.012 186.399 392.012 185.364 392.271 182.515 394.601 179.928 396.023 178.374 399.131 175.397 406.508 170.35 406.766 170.221 406.895 170.092 406.895 169.831 406.895 169.573 406.636 169.313 406.378 169.186 400.295 166.856 398.483 163.102 397.964 161.032L397.964 160.772C397.836 159.995 397.577 159.22 398.742 158.443 399.648 157.796 400.943 157.019 402.365 156.114 404.566 154.818 406.895 153.395 408.319 152.229 408.578 151.971 408.578 151.713 408.578 151.454 408.578 151.194 408.319 150.935 408.059 150.807 399.002 147.83 394.472 141.099 394.472 131.004 394.472 124.404 397.448 118.45 402.754 114.697 406.378 111.85 415.438 108.355 421.391 108.355L421.78 108.355C427.863 108.484 431.227 109.778 436.015 111.461 438.604 112.367 441.064 112.754 444.43 112.754 449.477 112.754 451.677 111.202 453.488 109.391 453.618 109.649 453.878 110.297 454.007 111.979 454.136 113.662 453.618 116.121 452.324 117.933 451.289 119.356 448.959 120.393 446.63 120.393L445.982 120.393C443.652 120.133 442.616 119.874 442.616 119.874L442.099 120.133C441.97 120.393 442.099 120.651 442.228 121.039L442.359 121.299C442.617 122.463 443.135 125.956 443.135 126.864 443.135 137.476 438.864 142.134 434.334 145.629 429.933 148.865 424.887 150.935 419.191 151.454 419.062 151.454 418.546 151.454 417.379 151.583 416.732 151.583 415.826 151.713 415.696 151.713L415.567 151.713C414.532 151.971 411.944 153.266 411.944 155.465 411.944 157.406 413.108 159.737 418.673 160.126 419.837 160.255 421.002 160.255 422.297 160.385 429.675 160.901 438.864 161.549 443.135 162.973 449.088 165.172 452.841 170.479 452.841 176.821 452.841 186.4 445.983 195.33 434.593 200.894 429.028 203.354 423.462 204.648 417.379 204.648ZM491.151 114.439C488.434 114.439 485.974 115.084 484.162 116.379 479.116 119.485 476.527 125.698 476.527 134.757 476.527 151.713 485.068 163.621 497.235 163.621 500.859 163.621 503.706 162.584 506.165 160.514 509.918 157.406 511.86 151.194 511.86 142.523 511.86 125.698 503.447 114.438 491.152 114.438ZM493.482 169.832C471.479 169.832 463.584 153.654 463.584 138.512 463.584 127.899 467.855 119.745 476.396 113.92 482.48 110.167 489.729 108.097 496.2 108.097 513.024 108.097 524.802 120.133 524.802 137.476 524.802 149.253 520.143 158.572 511.212 164.267 506.942 167.114 499.564 169.832 493.48 169.832L493.482 169.832ZM262.845 114.438C260.127 114.438 257.668 115.084 255.855 116.379 250.809 119.485 248.22 125.698 248.22 134.757 248.22 151.713 256.761 163.621 268.928 163.621 272.552 163.621 275.399 162.584 277.859 160.514 281.611 157.406 283.553 151.194 283.553 142.523 283.553 125.698 275.27 114.438 262.845 114.438ZM265.175 169.832C243.172 169.832 235.277 153.654 235.277 138.512 235.277 127.899 239.548 119.745 248.089 113.92 254.173 110.167 261.422 108.097 267.893 108.097 284.719 108.097 296.495 120.133 296.495 137.476 296.495 149.253 291.836 158.572 282.905 164.267 278.764 167.114 271.386 169.832 265.175 169.832ZM117.241 168.538C116.982 168.151 116.722 166.985 116.853 165.562 116.853 164.525 117.112 163.879 117.241 163.621 119.959 163.231 121.383 162.842 122.935 162.455 125.524 161.807 126.559 160.385 126.688 157.149 127.078 149.384 127.078 134.628 126.948 124.404L126.948 124.144C126.948 122.98 126.948 121.555 125.524 120.52 123.453 119.227 120.994 118.063 117.759 117.154 116.595 116.768 115.818 116.121 115.947 115.345 115.947 114.568 116.724 113.662 118.407 113.402 122.677 113.014 133.806 110.297 138.207 108.355 138.467 108.613 138.855 109.391 138.855 110.426L138.726 111.848C138.596 113.273 138.467 114.956 138.467 116.638 138.467 117.156 138.986 117.544 139.502 117.544 139.761 117.544 140.021 117.415 140.279 117.285 148.562 110.813 156.068 108.484 159.95 108.484 166.294 108.484 171.212 111.461 174.965 117.673 175.224 118.063 175.483 118.192 175.871 118.192 176.13 118.192 176.517 118.063 176.647 117.804 184.284 111.979 191.92 108.484 196.967 108.484 209.003 108.484 216.122 117.415 216.122 132.558 216.122 136.829 216.122 142.394 215.993 147.443 215.993 151.971 215.864 156.113 215.864 159.09 215.864 159.736 216.769 161.807 218.192 162.196 220.004 163.102 222.464 163.49 225.7 164.008L225.829 164.008C226.088 164.914 225.571 168.278 225.053 168.926 224.276 168.926 223.111 168.926 221.818 168.797 218.541 168.626 215.261 168.54 211.98 168.538 203.957 168.538 199.815 168.667 195.801 168.926 195.544 167.891 195.414 164.785 195.801 164.008 198.132 163.621 199.296 163.231 200.721 162.844 203.31 162.067 203.957 160.901 204.087 157.537 204.087 155.078 204.603 134.11 203.826 129.063 203.051 123.886 199.167 117.804 190.624 117.804 187.389 117.804 182.343 119.098 177.424 122.85 177.166 123.109 176.905 123.756 176.905 124.144L176.905 124.275C177.424 126.991 177.424 130.099 177.424 134.887L177.424 143.3C177.424 149.124 177.294 154.56 177.424 158.701 177.424 161.549 179.107 162.196 180.531 162.715 181.308 162.842 181.824 162.973 182.472 163.102 183.636 163.361 184.801 163.621 186.613 164.008 186.873 164.527 186.873 166.208 186.484 167.632 186.354 168.409 186.094 168.796 185.965 168.926 181.566 168.797 177.036 168.667 170.435 168.667 168.494 168.667 165.128 168.797 162.281 168.797 159.95 168.797 157.751 168.926 156.458 168.926 156.328 168.667 156.068 167.762 156.068 166.337 156.068 165.173 156.328 164.267 156.587 164.008 157.234 163.879 157.751 163.75 158.399 163.75 159.95 163.49 161.246 163.231 162.539 162.973 164.741 162.326 165.517 161.161 165.646 158.314 166.034 151.842 166.423 133.335 165.517 128.674 163.964 121.168 159.694 117.415 152.833 117.415 148.821 117.415 143.772 119.356 139.632 122.464 138.984 122.98 138.467 124.273 138.467 125.439L138.467 133.075C138.467 142.394 138.467 154.043 138.596 159.09 138.726 160.642 139.242 162.455 142.22 163.102 142.868 163.231 143.903 163.49 145.197 163.621L147.525 164.008C147.786 164.785 147.656 167.891 147.138 168.926 145.844 168.926 144.291 168.797 142.478 168.797 139.761 168.667 136.266 168.538 132.384 168.538 127.854 168.538 124.618 168.667 122.029 168.797 120.217 168.538 118.794 168.538 117.241 168.538Z" fill="#FFFFFF" fill-rule="evenodd" fill-opacity="1" transform="matrix(1.00267 0 0 1 280 257.542)"/><path d="M49.1621 199.6 43.8564 197.787C43.8564 197.787 44.5043 170.738 34.7962 168.797 28.3264 161.29 35.834-149.59 59.1297 167.761 59.1297 167.761 51.1045 171.772 49.681 178.633 48.127 185.364 49.1621 199.6 49.1621 199.6Z" fill="#FFFFFF" fill-rule="evenodd" fill-opacity="1" transform="matrix(1.00267 0 0 1 280 257.542)"/><path d="M49.1621 199.6 43.8564 197.787C43.8564 197.787 44.5043 170.738 34.7962 168.797 28.3264 161.29 35.834-149.59 59.1297 167.761 59.1297 167.761 51.1045 171.772 49.681 178.633 48.127 185.364 49.1621 199.6 49.1621 199.6Z" fill="#A6A385" fill-rule="evenodd" fill-opacity="1" transform="matrix(1.00267 0 0 1 280 257.542)"/><path d="M52.0105 173.456C52.0105 173.456 98.4756 142.911 87.6019 79.3622 77.1196 33.1595 52.399 18.0166 49.681 12.192 46.7049 8.05039 43.8564 0.803636 43.8564 0.803636L45.7988 129.321C45.7988 129.451 41.7863 168.667 52.0119 173.458" fill="#FFFFFF" fill-rule="evenodd" fill-opacity="1" transform="matrix(1.00267 0 0 1 280 257.542)"/><path d="M52.0105 173.456C52.0105 173.456 98.4756 142.911 87.6019 79.3622 77.1196 33.1595 52.399 18.0166 49.681 12.192 46.7049 8.05039 43.8564 0.803636 43.8564 0.803636L45.7988 129.321C45.7988 129.451 41.7863 168.667 52.0119 173.458" fill="#499D4A" fill-rule="evenodd" fill-opacity="1" transform="matrix(1.00267 0 0 1 280 257.542)"/><path d="M41.1397 175.138C41.1397 175.138-2.47823 145.37 0.110798 92.9539 2.56939 40.5366 33.3726 14.781 39.3263 10.1219 43.2098 5.98029 43.3388 4.42631 43.5983 0.284709 46.3164 6.10932 45.7988 87.3888 46.1859 96.9651 47.35 133.851 44.1158 168.151 41.1397 175.138Z" fill="#FFFFFF" fill-rule="evenodd" fill-opacity="1" transform="matrix(1.00267 0 0 1 280 257.542)"/><path d="M41.1397 175.138C41.1397 175.138-2.47823 145.37 0.110798 92.9539 2.56939 40.5366 33.3726 14.781 39.3263 10.1219 43.2098 5.98029 43.3388 4.42631 43.5983 0.284709 46.3164 6.10932 45.7988 87.3888 46.1859 96.9651 47.35 133.851 44.1158 168.151 41.1397 175.138Z" fill="#58AA50" fill-rule="evenodd" fill-opacity="1" transform="matrix(1.00267 0 0 1 280 257.542)"/></g></g></g></svg>