<?xml version="1.0" standalone="no"?>
<!DOCTYPE svg PUBLIC "-//W3C//DTD SVG 20010904//EN"
 "http://www.w3.org/TR/2001/REC-SVG-20010904/DTD/svg10.dtd">
<svg version="1.0" xmlns="http://www.w3.org/2000/svg"
 width="248.000000pt" height="244.000000pt" viewBox="0 0 248.000000 244.000000"
 preserveAspectRatio="xMidYMid meet">

<g transform="translate(0.000000,244.000000) scale(0.100000,-0.100000)"
fill="#e30614" stroke="none">
<path d="M1570 2412 c0 -6 9 -31 20 -56 l19 -46 72 0 c71 0 71 0 65 25 -17 69
-23 75 -70 75 -24 0 -58 3 -75 6 -19 4 -31 2 -31 -4z"/>
<path d="M1108 2306 c-32 -18 -61 -35 -64 -39 -7 -7 94 -117 108 -117 21 0
107 66 103 79 -6 16 -78 110 -85 110 -3 0 -31 -14 -62 -33z"/>
<path d="M2162 2243 c2 -21 17 -37 58 -65 62 -42 80 -46 80 -19 0 12 -24 36
-64 65 -36 25 -67 46 -71 46 -3 0 -5 -12 -3 -27z"/>
<path d="M1500 2225 c-440 -116 -799 -514 -1004 -1114 -101 -294 -158 -587
-201 -1028 l-6 -63 584 0 583 0 -52 158 c-102 307 -139 533 -131 802 6 199 30
323 90 472 90 223 248 414 403 488 175 84 364 77 572 -20 47 -22 86 -40 87
-40 2 0 8 15 15 33 11 31 10 33 -41 80 -112 104 -271 190 -420 228 -60 15
-127 22 -234 25 -136 4 -159 2 -245 -21z"/>
<path d="M634 1922 c-15 -20 -38 -51 -51 -68 l-24 -32 82 -51 c45 -29 82 -51
84 -49 1 2 21 32 44 66 41 60 42 64 24 77 -10 7 -43 32 -74 54 l-57 41 -28
-38z"/>
<path d="M2152 1903 c3 -26 7 -28 51 -31 41 -3 47 -1 47 17 0 20 -8 24 -68 36
-32 7 -33 6 -30 -22z"/>
<path d="M1820 1893 c-19 -8 -36 -16 -38 -18 -4 -3 36 -95 42 -95 3 0 21 8 41
17 38 18 39 25 15 88 -11 29 -12 29 -60 8z"/>
<path d="M1547 1682 c-15 -15 -27 -32 -27 -37 0 -13 72 -115 81 -115 11 0 49
55 49 71 0 15 -59 109 -69 109 -4 0 -19 -13 -34 -28z"/>
<path d="M255 1270 c-16 -49 -27 -91 -24 -93 7 -7 182 -68 184 -65 11 14 53
164 47 169 -6 6 -169 79 -176 79 -1 0 -15 -40 -31 -90z"/>
<path d="M1376 1309 l-15 -54 52 -53 c28 -29 56 -51 62 -49 5 2 15 23 22 48
l13 44 -59 59 -59 59 -16 -54z"/>
<path d="M1322 873 l3 -58 75 -37 c89 -44 102 -46 96 -15 -3 12 -7 38 -10 57
-5 31 -14 39 -75 73 -38 20 -74 37 -80 37 -8 0 -11 -19 -9 -57z"/>
<path d="M36 514 c-21 -82 -24 -109 -15 -115 9 -5 144 -21 203 -24 10 0 60
195 52 203 -3 2 -51 13 -108 23 -57 10 -103 19 -104 19 0 0 -13 -48 -28 -106z"/>
<path d="M1400 388 c0 -8 9 -42 21 -75 l20 -61 47 -6 c26 -3 73 -8 104 -11
l57 -6 -25 63 c-15 35 -30 66 -36 69 -5 3 -42 12 -81 18 -40 7 -80 15 -89 17
-11 3 -18 0 -18 -8z"/>
</g>
</svg>
