<svg width="732" height="214" xmlns="http://www.w3.org/2000/svg" xmlns:xlink="http://www.w3.org/1999/xlink" xml:space="preserve" overflow="hidden"><g transform="translate(-184 -166)"><g><g><g><path d="M578.767 373.733C578.767 378.701 574.686 383.134 569.364 383.134 565.283 383.134 561.736 384.199 558.72 386.506 555.35 388.636 552.689 391.65 550.561 395.02 546.303 400.697 544.177 407.437 543.289 409.919L543.289 443.623C543.289 448.768 538.855 453.026 533.533 453.026 528.389 453.026 524.132 448.768 524.132 443.623L524.132 373.733C524.132 368.588 528.389 364.509 533.533 364.509 538.855 364.509 543.289 368.59 543.289 373.733L543.289 374.975C544.353 373.733 545.772 372.315 547.014 371.427 552.869 367.526 560.495 364.332 569.364 364.509 574.686 364.509 578.767 368.59 578.767 373.733ZM573.564 408.681C573.743 384.556 592.545 364.334 616.845 364.334 639.906 364.334 658.176 381.541 659.597 405.487L659.597 406.373C659.597 406.729 659.597 407.614 659.42 407.97 658.886 412.228 655.162 415.066 650.194 415.066L593.786 415.066C594.673 419.147 596.623 423.758 599.818 426.774 603.543 431.032 610.638 434.222 616.845 434.754 623.231 435.286 630.859 433.691 635.294 430.321 639.018 426.417 646.292 426.951 648.598 429.787 650.904 432.273 652.677 437.594 648.598 441.317 639.905 449.298 629.44 453.024 616.844 453.024 592.545 452.85 573.743 432.805 573.564 408.681ZM592.899 399.989 643.099 399.989C641.325 392.894 632.278 382.429 616.845 381.187 601.77 381.895 594.319 392.717 592.899 399.989ZM749.964 443.45C749.964 448.595 745.706 453.03 740.384 453.03 735.595 453.03 731.871 449.66 730.983 445.402 724.243 450.013 715.729 453.03 706.859 453.03 682.913 453.03 663.755 432.808 663.755 408.861 663.755 384.558 682.913 364.336 706.859 364.336 715.552 364.336 724.065 367.173 730.628 371.785L730.628 338.438C730.628 333.293 734.886 328.858 740.383 328.858 745.705 328.858 749.963 333.293 749.963 338.438L749.963 443.45ZM706.86 383.671C700.474 383.671 694.62 386.331 690.188 390.943 685.753 395.378 683.091 401.763 683.091 408.859 683.091 415.599 685.751 421.985 690.188 426.42 694.62 431.033 700.474 433.693 706.86 433.693 713.423 433.693 719.1 431.033 723.534 426.42 727.967 421.986 730.629 415.599 730.629 408.859 730.629 401.763 727.969 395.378 723.534 390.943 719.1 386.331 713.423 383.671 706.86 383.671ZM783.718 342.162C783.718 347.484 779.638 351.917 774.138 351.917 768.816 351.917 764.56 347.484 764.56 342.162L764.56 338.437C764.538 333.168 768.791 328.879 774.06 328.857 774.086 328.857 774.112 328.857 774.138 328.857 779.638 328.857 783.718 333.115 783.718 338.437ZM783.718 374.268 783.718 443.449C783.718 448.771 779.638 453.029 774.138 453.029 768.869 453.05 764.581 448.796 764.56 443.527 764.56 443.501 764.56 443.475 764.56 443.449L764.56 374.268C764.56 368.592 768.816 364.511 774.138 364.511 779.64 364.511 783.718 368.592 783.718 374.268ZM795.907 427.651C799.1 423.396 805.31 422.863 809.211 426.233 813.823 430.137 821.806 434.214 828.723 434.038 833.512 434.038 837.947 432.443 840.786 430.668 843.269 428.539 843.977 426.767 843.977 425.346 843.977 424.459 843.8 424.105 843.446 423.571 843.268 423.04 842.559 422.331 841.139 421.445 838.656 419.67 833.334 417.718 826.948 416.477L826.771 416.477C821.271 415.414 815.949 413.994 811.338 411.864 806.549 409.559 802.291 406.367 799.098 401.577 797.148 398.385 796.084 394.482 796.084 390.403 796.084 382.242 800.696 375.324 806.549 370.889 812.758 366.632 820.208 364.326 828.369 364.326 840.608 364.326 849.299 370.181 854.976 374.082 859.234 376.92 860.475 382.775 857.814 387.207 854.976 391.465 849.122 392.707 844.688 389.691 839.012 385.967 834.045 383.127 828.369 383.127 823.934 383.127 820.031 384.547 817.725 386.32 815.419 387.918 814.888 389.514 814.888 390.401 814.888 391.109 814.888 391.288 815.242 391.819 815.421 392.173 815.952 392.883 817.194 393.593 819.502 395.189 824.112 396.785 830.144 397.851L830.321 398.029 830.499 398.029C836.354 399.091 841.853 400.689 846.996 403.172 851.785 405.301 856.576 408.671 859.591 413.637 861.72 417.184 862.961 421.265 862.961 425.345 862.961 434.036 858.172 441.31 851.785 445.921 845.399 450.355 837.416 453.018 828.724 453.018 814.889 452.841 804.246 446.455 797.151 440.779 793.247 437.586 792.716 431.553 795.907 427.651Z" fill="#FFFFFF" fill-rule="nonzero" fill-opacity="1" transform="matrix(1.00021 0 0 1 -41.3354 -139.421)"/><path d="M459.524 466.072C447.063 472.567 382.51 499.109 368.767 506.272 355.024 513.439 347.389 513.369 336.533 508.179 325.676 502.989 256.98 475.241 244.606 469.326 238.421 466.369 235.169 463.875 235.169 461.518L235.169 437.916C235.169 437.916 324.602 418.446 339.04 413.267 353.478 408.086 358.487 407.9 370.774 412.401 383.062 416.902 456.529 430.157 468.673 434.605L468.667 457.873C468.669 460.206 465.867 462.766 459.524 466.072Z" fill="#A41E11" fill-rule="nonzero" fill-opacity="1" transform="matrix(1.00021 0 0 1 -41.3354 -139.421)"/><path d="M459.524 442.462C447.063 448.955 382.51 475.499 368.767 482.663 355.024 489.829 347.389 489.759 336.533 484.569 325.675 479.382 256.98 451.628 244.606 445.716 232.231 439.802 231.972 435.73 244.128 430.971 256.283 426.21 324.602 399.406 339.042 394.225 353.479 389.048 358.488 388.858 370.775 393.361 383.063 397.862 447.23 423.402 459.373 427.85 471.518 432.301 471.985 435.966 459.524 442.462Z" fill="#D82C20" fill-rule="nonzero" fill-opacity="1" transform="matrix(1.00021 0 0 1 -41.3354 -139.421)"/><path d="M459.524 427.582C447.063 434.078 382.51 460.619 368.767 467.786 355.024 474.95 347.389 474.88 336.533 469.69 325.675 464.503 256.98 436.752 244.606 430.837 238.421 427.88 235.169 425.389 235.169 423.032L235.169 399.426C235.169 399.426 324.602 379.958 339.04 374.778 353.478 369.599 358.487 369.41 370.774 373.911 383.062 378.412 456.529 391.665 468.673 396.114L468.667 419.385C468.669 421.717 465.867 424.277 459.524 427.582Z" fill="#A41E11" fill-rule="nonzero" fill-opacity="1" transform="matrix(1.00021 0 0 1 -41.3354 -139.421)"/><path d="M459.524 403.973C447.063 410.468 382.51 437.01 368.767 444.176 355.024 451.34 347.389 451.27 336.533 446.08 325.675 440.893 256.98 413.141 244.606 407.227 232.231 401.314 231.972 397.242 244.128 392.481 256.283 387.722 324.602 360.917 339.042 355.737 353.479 350.558 358.488 350.37 370.775 354.871 383.063 359.372 447.23 384.912 459.373 389.361 471.518 393.811 471.985 397.477 459.524 403.973Z" fill="#D82C20" fill-rule="nonzero" fill-opacity="1" transform="matrix(1.00021 0 0 1 -41.3354 -139.421)"/><path d="M459.524 387.665C447.063 394.161 382.51 420.704 368.767 427.871 355.024 435.034 347.389 434.964 336.533 429.774 325.675 424.587 256.98 396.835 244.606 390.921 238.421 387.965 235.169 385.472 235.169 383.116L235.169 359.511C235.169 359.511 324.602 340.043 339.04 334.863 353.478 329.683 358.487 329.496 370.774 333.997 383.062 338.498 456.529 351.751 468.673 356.2L468.667 379.469C468.669 381.8 465.867 384.36 459.524 387.665Z" fill="#A41E11" fill-rule="nonzero" fill-opacity="1" transform="matrix(1.00021 0 0 1 -41.3354 -139.421)"/><path d="M459.524 364.056C447.063 370.551 382.51 397.094 368.767 404.259 355.024 411.423 347.389 411.353 336.533 406.165 325.676 400.976 256.98 373.225 244.606 367.312 232.231 361.398 231.972 357.326 244.128 352.565 256.283 347.805 324.602 321.002 339.042 315.822 353.479 310.642 358.488 310.455 370.775 314.957 383.063 319.458 447.23 344.998 459.373 349.447 471.518 353.894 471.985 357.562 459.524 364.056Z" fill="#D82C20" fill-rule="nonzero" fill-opacity="1" transform="matrix(1.00021 0 0 1 -41.3354 -139.421)"/><path d="M357.755 354.324 350.439 342.162 327.076 340.062 344.509 333.775 339.279 324.125 355.6 330.508 370.988 325.47 366.829 335.45 382.518 341.325 362.285 343.425ZM372.896 370.233 356.547 394.199 318.786 378.537Z" fill="#FFFFFF" fill-rule="nonzero" fill-opacity="1" transform="matrix(1.00021 0 0 1 -41.3354 -139.421)"/><path d="M333.115 358.593C333.115 364.784 320.167 369.803 304.194 369.803 288.222 369.803 275.274 364.784 275.274 358.593 275.274 352.401 288.222 347.382 304.194 347.382 320.167 347.382 333.115 352.401 333.115 358.593Z" fill="#FFFFFF" fill-rule="nonzero" fill-opacity="1" transform="matrix(1.00021 0 0 1 -41.3354 -139.421)"/><path d="M406.457 369.601 406.43 344.303 438.454 356.959Z" fill="#7A0C00" fill-rule="nonzero" fill-opacity="1" transform="matrix(1.00021 0 0 1 -41.3354 -139.421)"/><path d="M406.457 369.601 402.984 370.96 371.001 358.318 406.43 344.303Z" fill="#AD2115" fill-rule="nonzero" fill-opacity="1" transform="matrix(1.00021 0 0 1 -41.3354 -139.421)"/></g></g></g></g></svg>