<svg width="653" height="92" xmlns="http://www.w3.org/2000/svg" xmlns:xlink="http://www.w3.org/1999/xlink" xml:space="preserve" overflow="hidden"><g transform="translate(-313 -308)"><g><g><g><g><path d="M206.668 313.281 195.937 313.281 195.937 334.047C195.937 339.611 199.614 339.512 206.668 339.214L206.668 347.66C192.261 349.349 186.597 345.374 186.597 334.147L186.597 313.38 178.649 313.38 178.649 304.339 186.597 304.339 186.597 292.714 195.937 289.932 195.937 304.339 206.668 304.339 206.668 313.281ZM247.604 304.239 256.944 304.239 256.944 347.56 247.604 347.56 247.604 341.301C244.325 345.871 239.159 348.653 232.402 348.653 220.579 348.653 210.841 338.717 210.841 325.9 210.841 312.983 220.678 303.146 232.402 303.146 239.159 303.146 244.325 305.928 247.604 310.4L247.604 304.239ZM233.893 339.81C241.742 339.81 247.604 334.047 247.604 325.9 247.604 317.852 241.742 311.989 233.893 311.989 226.143 311.989 220.181 317.752 220.181 325.9 220.181 334.047 226.143 339.81 233.893 339.81ZM272.544 297.781C269.265 297.781 266.582 294.999 266.582 291.819 266.582 288.541 269.265 285.858 272.544 285.858 275.822 285.858 278.505 288.541 278.505 291.819 278.605 294.999 275.822 297.781 272.544 297.781ZM267.874 347.56 267.874 304.239 277.214 304.239 277.214 347.56 267.874 347.56ZM288.044 347.56 288.044 284.268 297.384 284.268 297.384 347.56 288.044 347.56ZM358.192 304.239 368.028 304.239 354.416 347.56 345.275 347.56 336.233 318.348 327.092 347.56 317.951 347.56 304.339 304.239 314.175 304.239 322.621 334.147 331.762 304.239 340.704 304.239 349.746 334.147 358.192 304.239ZM379.753 297.781C376.474 297.781 373.791 294.999 373.791 291.819 373.791 288.541 376.474 285.858 379.753 285.858 383.032 285.858 385.714 288.541 385.714 291.819 385.714 294.999 383.032 297.781 379.753 297.781ZM374.983 347.56 374.983 304.239 384.323 304.239 384.323 347.56 374.983 347.56ZM418.006 303.146C427.743 303.146 434.699 309.704 434.699 321.031L434.699 347.66 425.359 347.66 425.359 321.925C425.359 315.368 421.583 311.89 415.622 311.89 409.461 311.89 404.593 315.566 404.593 324.409L404.593 347.66 395.253 347.66 395.253 304.339 404.593 304.339 404.593 309.903C407.474 305.332 412.144 303.146 418.006 303.146ZM479.013 286.951 488.353 286.951 488.353 347.66 479.013 347.66 479.013 341.4C475.734 345.97 470.567 348.753 463.811 348.753 451.987 348.753 442.25 338.817 442.25 325.999 442.25 313.082 452.087 303.246 463.811 303.246 470.567 303.246 475.734 306.028 479.013 310.499L479.013 286.951ZM465.401 339.81C473.25 339.81 479.112 334.047 479.112 325.9 479.112 317.852 473.25 311.989 465.401 311.989 457.651 311.989 451.689 317.752 451.689 325.9 451.689 334.047 457.551 339.81 465.401 339.81ZM519.75 348.753C506.635 348.753 496.898 338.817 496.898 325.999 496.898 313.082 506.734 303.246 519.75 303.246 528.295 303.246 535.648 307.618 539.126 314.473L531.078 319.143C529.19 315.07 524.917 312.486 519.75 312.486 512.1 312.486 506.337 318.249 506.337 326.099 506.337 333.948 512.1 339.711 519.75 339.711 524.917 339.711 529.19 337.028 531.276 333.054L539.324 337.624C535.648 344.281 528.295 348.753 519.75 348.753ZM554.725 316.262C554.725 324.111 578.075 319.342 578.075 335.438 578.075 344.083 570.523 348.753 561.183 348.753 552.539 348.753 546.28 344.877 543.497 338.618L551.546 333.948C552.937 337.823 556.414 340.208 561.183 340.208 565.357 340.208 568.536 338.817 568.536 335.339 568.536 327.589 545.187 331.961 545.187 316.461 545.187 308.313 552.241 303.246 561.084 303.246 568.238 303.246 574.1 306.525 577.081 312.287L569.232 316.659C567.642 313.281 564.661 311.691 561.084 311.691 557.706 311.592 554.725 313.082 554.725 316.262ZM594.668 316.262C594.668 324.111 618.017 319.342 618.017 335.438 618.017 344.083 610.466 348.753 601.126 348.753 592.482 348.753 586.222 344.877 583.44 338.618L591.488 333.948C592.879 337.823 596.357 340.208 601.126 340.208 605.299 340.208 608.479 338.817 608.479 335.339 608.479 327.589 585.129 331.961 585.129 316.461 585.129 308.313 592.184 303.246 601.027 303.246 608.181 303.246 614.043 306.525 617.024 312.287L609.174 316.659C607.584 313.281 604.604 311.691 601.027 311.691 597.648 311.592 594.668 313.082 594.668 316.262Z" fill="#FFFFFF" fill-rule="evenodd" fill-opacity="1" transform="matrix(1.00644 0 0 1 314 35.894)"/><path d="M83.4621 282.182C67.0678 282.182 56.7344 290.428 52.6606 306.823 58.8209 298.576 65.9748 295.496 74.2217 297.582 78.8916 298.775 82.2698 302.153 85.9461 305.928 92.0071 312.089 98.9622 319.143 114.264 319.143 130.658 319.143 140.991 310.896 145.065 294.502 138.905 302.749 131.751 305.829 123.504 303.743 118.834 302.55 115.456 299.172 111.78 295.396 105.719 289.236 98.7635 282.182 83.4621 282.182L83.4621 282.182ZM52.6606 319.044C36.2663 319.044 25.9329 327.291 21.8591 343.685 28.0194 335.438 35.1733 332.358 43.4202 334.445 48.0901 335.637 51.4683 339.015 55.1446 342.791 61.2056 348.951 68.1607 356.006 83.4621 356.006 99.8565 356.006 110.19 347.759 114.264 331.365 108.103 339.611 100.949 342.692 92.7026 340.605 88.0327 339.413 84.6544 336.034 80.9781 332.259 74.9172 326.198 67.962 319.044 52.6606 319.044Z" fill="#06B6D4" fill-rule="evenodd" fill-opacity="1" transform="matrix(1.00644 0 0 1 314 35.894)"/></g></g></g></g></g></svg>